<svg width="86" height="80" viewBox="0 0 86 80" fill="none" xmlns="http://www.w3.org/2000/svg">
<g opacity="0.8">
<path d="M84.5 64V23H8V64H84.5Z" stroke="black" stroke-width="1.88"/>
<path d="M77.5 23V15H1V56H8" stroke="black" stroke-width="1.88"/>
<path d="M45.5 35L45.5 32.5M45.5 52V54.5" stroke="black" stroke-width="1.88"/>
<circle cx="45.5" cy="43.5" r="8.56" stroke="black" stroke-width="1.88"/>
<circle cx="16.5" cy="31.5" r="3.56" stroke="black" stroke-width="1.88"/>
<circle cx="76.5" cy="55.5" r="3.56" stroke="black" stroke-width="1.88"/>
<path d="M43.1657 47.0056C43.4506 47.331 43.809 47.5893 44.2137 47.7607C44.6183 47.932 45.0583 48.0119 45.5 47.9942C46.1751 48.0385 46.8417 47.8291 47.3597 47.4101C47.8778 46.9911 48 46.4067 48 45.7475C48 45.0882 47.8778 44.5038 47.3597 44.0848C46.8417 43.6658 46.1751 43.4565 45.5 43.5008C44.8249 43.5451 44.1583 43.3357 43.6403 42.9167C43.1222 42.4977 43 41.9199 43 41.2541C43 40.5882 43.1149 40.0047 43.6343 39.5846C44.1537 39.1645 44.8236 38.9573 45.5 39.0074C45.9339 38.9818 46.3683 39.0491 46.7719 39.2045C47.1756 39.3599 47.5384 39.5995 47.8343 39.906" stroke="black" stroke-width="1.88" stroke-linecap="square" stroke-linejoin="round"/>
</g>
</svg>
