<svg width="80" height="80" viewBox="0 0 80 80" fill="none" xmlns="http://www.w3.org/2000/svg">
<g opacity="0.8">
<path d="M52.7284 45.2284C52.6168 45.1171 52.5342 44.9803 52.4877 44.8297C52.4412 44.6792 52.4321 44.5196 52.4614 44.3648C52.4907 44.21 52.5574 44.0648 52.6557 43.9417C52.754 43.8186 52.8809 43.7214 53.0254 43.6585L63.8355 38.9587C64.3682 38.7212 64.8168 38.3285 65.1227 37.832C65.4286 37.3355 65.5777 36.7582 65.5503 36.1756C65.5229 35.593 65.3204 35.0323 64.9692 34.5667C64.618 34.101 64.1345 33.7522 63.5819 33.5657L24.9206 20.9418C24.4138 20.7801 23.8724 20.761 23.3555 20.8866C22.8387 21.0121 22.3663 21.2774 21.9902 21.6535C21.6141 22.0296 21.3488 22.502 21.2233 23.0188C21.0977 23.5357 21.1169 24.0771 21.2785 24.5838L33.9024 63.2452C34.0816 63.8038 34.4277 64.294 34.8941 64.6499C35.3605 65.0057 35.9247 65.21 36.5108 65.2353H36.6533C37.2155 65.2374 37.766 65.0739 38.2359 64.765C38.7058 64.4562 39.0743 64.0158 39.2954 63.4988L43.9952 52.6887C44.0581 52.5442 44.1553 52.4173 44.2784 52.319C44.4015 52.2207 44.5468 52.154 44.7015 52.1247C44.8563 52.0954 45.0159 52.1044 45.1665 52.151C45.317 52.1975 45.4538 52.2801 45.5651 52.3916L57.561 64.3876C57.8303 64.6578 58.1502 64.8722 58.5025 65.0184C58.8548 65.1647 59.2324 65.24 59.6139 65.24C59.9953 65.24 60.373 65.1647 60.7253 65.0184C61.0776 64.8722 61.3975 64.6578 61.6667 64.3876L64.7315 61.3228C65.0017 61.0535 65.2161 60.7336 65.3624 60.3813C65.5087 60.0291 65.584 59.6514 65.584 59.2699C65.584 58.8885 65.5087 58.5108 65.3624 58.1585C65.2161 57.8063 65.0017 57.4863 64.7315 57.2171L52.7284 45.2284ZM63.3549 59.9607L60.2901 63.0255C60.109 63.2061 59.8637 63.3076 59.6078 63.3076C59.352 63.3076 59.1067 63.2061 58.9256 63.0255L46.9296 51.0295C46.3866 50.4858 45.65 50.1801 44.8816 50.1794C44.6992 50.1791 44.5171 50.1969 44.3382 50.2325C43.8745 50.3207 43.4395 50.5209 43.0708 50.8155C42.702 51.1101 42.4109 51.4903 42.2225 51.9231L37.5227 62.7332C37.4416 62.9066 37.3107 63.052 37.1468 63.1509C36.9829 63.2499 36.7932 63.2978 36.602 63.2888C36.4108 63.2797 36.2265 63.214 36.0727 63.1001C35.9188 62.9861 35.8023 62.829 35.7379 62.6487L23.1165 23.9849C23.0648 23.817 23.0598 23.6383 23.1021 23.4678C23.1445 23.2974 23.2324 23.1417 23.3566 23.0175C23.4808 22.8933 23.6365 22.8053 23.807 22.763C23.9774 22.7207 24.1562 22.7257 24.324 22.7773L62.9806 35.4036C63.1648 35.4635 63.3263 35.5781 63.4438 35.7321C63.5613 35.8861 63.6292 36.0721 63.6384 36.2656C63.6475 36.4591 63.5976 36.6508 63.4952 36.8152C63.3928 36.9796 63.2428 37.1089 63.0651 37.186L52.255 41.8882C51.8218 42.0766 51.4413 42.368 51.1465 42.737C50.8516 43.106 50.6515 43.5414 50.5634 44.0055C50.4753 44.4695 50.5019 44.948 50.641 45.3994C50.7801 45.8508 51.0274 46.2614 51.3614 46.5953L63.3573 58.5913C63.538 58.7724 63.6395 59.0177 63.6395 59.2736C63.6395 59.5294 63.538 59.7747 63.3573 59.9558L63.3549 59.9607ZM34.6584 17.8988V15.9667C34.6584 15.7105 34.7601 15.4647 34.9413 15.2836C35.1225 15.1024 35.3682 15.0006 35.6244 15.0006C35.8806 15.0006 36.1263 15.1024 36.3075 15.2836C36.4887 15.4647 36.5905 15.7105 36.5905 15.9667V17.8988C36.5905 18.155 36.4887 18.4007 36.3075 18.5819C36.1263 18.763 35.8806 18.8648 35.6244 18.8648C35.3682 18.8648 35.1225 18.763 34.9413 18.5819C34.7601 18.4007 34.6584 18.155 34.6584 17.8988ZM15.3373 35.2877C15.3373 35.0315 15.4391 34.7858 15.6203 34.6046C15.8014 34.4234 16.0472 34.3216 16.3034 34.3216H18.2355C18.4917 34.3216 18.7374 34.4234 18.9186 34.6046C19.0998 34.7858 19.2015 35.0315 19.2015 35.2877C19.2015 35.5439 19.0998 35.7896 18.9186 35.9708C18.7374 36.152 18.4917 36.2538 18.2355 36.2538H16.3034C16.0472 36.2538 15.8014 36.152 15.6203 35.9708C15.4391 35.7896 15.3373 35.5439 15.3373 35.2877ZM42.4882 19.3986L44.4203 15.5344C44.535 15.3051 44.736 15.1307 44.9792 15.0496C45.2225 14.9685 45.4879 14.9874 45.7172 15.1021C45.9465 15.2167 46.1209 15.4178 46.202 15.661C46.2831 15.9042 46.2642 16.1697 46.1495 16.399L44.2174 20.2632C44.1028 20.4925 43.9017 20.6669 43.6585 20.7479C43.4153 20.829 43.1498 20.8101 42.9205 20.6955C42.6912 20.5808 42.5168 20.3798 42.4358 20.1366C42.3547 19.8933 42.3735 19.6279 42.4882 19.3986ZM21.0322 42.5838C21.0891 42.6973 21.123 42.821 21.132 42.9476C21.1411 43.0742 21.125 43.2014 21.0849 43.3219C21.0447 43.4423 20.9812 43.5537 20.898 43.6496C20.8148 43.7455 20.7135 43.824 20.5999 43.8807L16.7357 45.8128C16.6013 45.8793 16.4534 45.914 16.3034 45.9143C16.0855 45.9146 15.874 45.8413 15.703 45.7062C15.5321 45.5711 15.4119 45.3823 15.3618 45.1702C15.3117 44.9582 15.3348 44.7355 15.4272 44.5383C15.5197 44.341 15.6761 44.1808 15.8711 44.0836L19.7353 42.1515C19.8488 42.0946 19.9724 42.0607 20.0991 42.0517C20.2257 42.0426 20.3529 42.0587 20.4734 42.0988C20.5938 42.139 20.7052 42.2025 20.8011 42.2857C20.8969 42.3689 20.9755 42.4702 21.0322 42.5838Z" fill="black"/>
</g>
</svg>
