<svg width="81" height="80" viewBox="0 0 81 80" fill="none" xmlns="http://www.w3.org/2000/svg">
<g opacity="0.8">
<path d="M42.3377 32.4219C43.0199 34.0776 45.0549 34.5507 45.862 34.6814C46.0441 34.7098 46.2282 34.7237 46.4126 34.723H66.3688C67.4876 34.723 68.5606 35.1674 69.3517 35.9584C70.1429 36.7494 70.5876 37.8223 70.5878 38.9411C70.5876 40.0597 70.1431 41.1324 69.3521 41.9234C68.5611 42.7144 67.4884 43.1589 66.3697 43.1591H64.8031C67.1323 43.1591 69.2718 45.049 69.2718 47.3781C69.2719 47.9324 69.1628 48.4812 68.9507 48.9933C68.7386 49.5054 68.4277 49.9706 68.0357 50.3624C67.6437 50.7542 67.1783 51.065 66.6661 51.2768C66.154 51.4887 65.6051 51.5976 65.0508 51.5972H63.2645C64.3835 51.5972 65.4566 52.0417 66.2478 52.8329C67.039 53.6241 67.4835 54.6973 67.4835 55.8162C67.4835 56.3703 67.3744 56.9189 67.1624 57.4308C66.9504 57.9426 66.6396 58.4077 66.2478 58.7995C65.856 59.1913 65.3909 59.5021 64.8791 59.7141C64.3672 59.9261 63.8186 60.0352 63.2645 60.0352H61.5111C62.0649 60.0352 62.6133 60.1443 63.1249 60.3563C63.6365 60.5682 64.1014 60.8788 64.493 61.2704C64.8846 61.662 65.1952 62.1269 65.4072 62.6385C65.6191 63.1502 65.7282 63.6985 65.7282 64.2523C65.7282 65.3713 65.2837 66.4444 64.4925 67.2356C63.7012 68.0269 62.6281 68.4714 61.5092 68.4714H38.5019C36.4843 68.4714 29.6429 68.1191 25.3203 64.2349" stroke="black" stroke-width="1.8797" stroke-miterlimit="3.55" stroke-linecap="square"/>
<path d="M27.6406 35.8797L34.3175 30.0969L45.2744 11C45.2744 11 53.4996 12.7941 49.5235 24.0267L45.0722 35.3572" stroke="black" stroke-width="1.8797" stroke-miterlimit="3.55"/>
<path d="M10.5 66.7494H24.5544L28.2983 31.0938H14.1655L10.5 66.7494Z" stroke="black" stroke-width="1.8797" stroke-miterlimit="3.55" stroke-linecap="round"/>
</g>
</svg>
