<svg width="81" height="80" viewBox="0 0 81 80" fill="none" xmlns="http://www.w3.org/2000/svg">
<g opacity="0.8">
<path d="M21.2635 73.2056V67.3629C21.2635 67.3629 21.8296 65.0763 18.1389 61.8472C14.4482 58.6181 3.5 43.6724 3.5 43.6724L3.82127 17.1854C3.82127 17.1854 6.88877 16.2981 8.50091 19.2175C10.113 22.137 10.3163 25.9699 10.3163 26.3725C10.3163 26.775 10.5175 38.9715 10.5175 38.9715L14.1221 42.8596" stroke="black" stroke-width="1.8797" stroke-miterlimit="3.55" stroke-linecap="square"/>
<path d="M23.2586 53.8887L12.4062 45.2212C12.4062 45.2212 14.659 41.4928 17.8329 41.7947C21.0069 42.0966 25.9846 46.4782 25.9846 46.4782" stroke="black" stroke-width="1.8797" stroke-miterlimit="3.55" stroke-linecap="square"/>
<path d="M27.3906 47.6719L36.417 55.3987L36.8196 73.2067" stroke="black" stroke-width="1.8797" stroke-miterlimit="3.55" stroke-linecap="square"/>
<path d="M15.6631 41.7773V27.5855C15.6631 27.5855 16.1199 22.5304 10.0391 21.7969" stroke="black" stroke-width="1.8797" stroke-miterlimit="3.55" stroke-linecap="square"/>
<path d="M59.9454 73.2056V67.3629C59.9454 67.3629 59.3783 65.0763 63.069 61.8472C66.7597 58.6181 77.7079 43.6724 77.7079 43.6724L77.3866 17.1854C77.3866 17.1854 74.3191 16.2981 72.707 19.2175C71.0949 22.137 70.8936 25.9699 70.8936 26.3725C70.8936 26.775 70.6914 38.9715 70.6914 38.9715L67.169 42.7764" stroke="black" stroke-width="1.8797" stroke-miterlimit="3.55" stroke-linecap="square"/>
<path d="M57.9518 53.8887L68.8042 45.2212C68.8042 45.2212 66.5515 41.4928 63.3785 41.7947C60.2055 42.0966 57.0625 44.7335 57.0625 44.7335" stroke="black" stroke-width="1.8797" stroke-miterlimit="3.55" stroke-linecap="square"/>
<path d="M55.6746 45.9766L44.7932 55.3987L44.3906 73.2067" stroke="black" stroke-width="1.8797" stroke-miterlimit="3.55" stroke-linecap="square"/>
<path d="M65.5506 41.7778V27.586C65.5506 27.586 65.0223 22.5851 71.1041 21.8516" stroke="black" stroke-width="1.8797" stroke-miterlimit="3.55" stroke-linecap="square"/>
<path d="M59.1898 16.7851C59.1898 11.3816 54.8933 7 49.6002 7C45.0454 7 41.2337 10.2388 40.2554 14.5836L40.2438 14.6368C39.2839 10.2659 35.4587 7 30.8865 7C25.5895 7 21.2969 11.3826 21.2969 16.7851C21.2968 17.3949 21.3522 18.0035 21.4623 18.6033C22.641 26.6069 40.2003 41.777 40.2003 41.777C40.2003 41.777 53.8444 29.9869 57.8863 21.7115C58.7442 20.2116 59.1936 18.5129 59.1898 16.7851Z" stroke="black" stroke-width="1.8797" stroke-miterlimit="3.55" stroke-linecap="square"/>
</g>
</svg>
