<svg width="81" height="80" viewBox="0 0 81 80" fill="none" xmlns="http://www.w3.org/2000/svg">
<g opacity="0.8">
<path d="M35.3 21.9375H21.1797" stroke="black" stroke-width="1.8797" stroke-miterlimit="3.55" stroke-linecap="square"/>
<path d="M60.258 25.2216L43.85 19.1689C43.85 19.1689 38.1255 18.6357 33.7512 24.5036C29.377 30.3715 28.3606 34.7715 31.0547 35.7053C33.7488 36.6391 38.0139 31.8347 38.0139 31.8347L44.074 30.1006L61.4707 49.9746L64.8587 43.5163" stroke="black" stroke-width="1.8797" stroke-miterlimit="3.55" stroke-linecap="square"/>
<path d="M17 42L32.738 59.039C32.738 59.039 40.6785 66.552 44.3841 62.6842" stroke="black" stroke-width="1.8797" stroke-miterlimit="3.55" stroke-linecap="square"/>
<path d="M36.7812 52.7695L44.076 61.3034C44.076 61.3034 46.7969 64.638 49.0439 62.7704C51.2909 60.9028 51.1508 59.5422 51.1508 59.5422" stroke="black" stroke-width="1.8797" stroke-miterlimit="3.55" stroke-linecap="square"/>
<path d="M43.0625 49.9688L49.2667 56.9998C49.2667 56.9998 51.2457 60.1157 53.6059 59.449C55.9661 58.7823 56.6437 54.9542 56.6437 54.9542" stroke="black" stroke-width="1.8797" stroke-miterlimit="3.55" stroke-linecap="square"/>
<path d="M47.6562 44.6367L54.8532 52.7729C54.8532 52.7729 57.948 56.6252 60.0174 54.953C60.6885 54.4092 62.9298 51.633 60.9361 49.356" stroke="black" stroke-width="1.8797" stroke-miterlimit="3.55" stroke-linecap="square"/>
<path d="M9.69687 16.2403C9.07787 16.116 8.5 16.5894 8.5 17.2208V42.5514C8.5 43.1037 8.94772 43.5514 9.5 43.5514H15.2521C15.7272 43.5514 16.1367 43.2172 16.2318 42.7517L20.9779 19.529C21.0887 18.9866 20.7378 18.4574 20.195 18.3484L9.69687 16.2403Z" stroke="black" stroke-width="1.8797" stroke-miterlimit="3.55" stroke-linecap="square"/>
<path d="M70.8882 16.2403C71.5072 16.116 72.0851 16.5894 72.0851 17.2208V42.5514C72.0851 43.1037 71.6373 43.5514 71.0851 43.5514H65.333C64.8579 43.5514 64.4484 43.2172 64.3533 42.7517L59.6072 19.529C59.4963 18.9866 59.8473 18.4574 60.39 18.3484L70.8882 16.2403Z" stroke="black" stroke-width="1.8797" stroke-miterlimit="3.55" stroke-linecap="square"/>
</g>
</svg>
