<svg width="81" height="80" viewBox="0 0 81 80" fill="none" xmlns="http://www.w3.org/2000/svg">
<g opacity="0.8">
<path d="M33.4375 74.8672H47.7232" stroke="black" stroke-width="1.8797" stroke-miterlimit="3.55"/>
<path d="M18.7123 30.575C23.988 31.5707 28.0019 33.8428 30.6504 37.3487C31.8209 38.9155 32.7249 40.6646 33.326 42.5257C33.8632 44.1835 34.2125 45.8963 34.3672 47.6321C34.4697 48.7301 34.504 49.8334 34.4698 50.9357C33.3943 50.6923 32.3349 50.3823 31.2978 50.0077C29.6561 49.422 28.0854 48.6537 26.6152 47.7172C24.9622 46.6693 23.494 45.3548 22.2704 43.8272C19.5455 40.3804 18.3523 35.9291 18.7123 30.5702M16.8079 28.1094C13.6069 51.3566 36.4177 53.4603 36.4177 53.4603C36.4177 53.4603 40.1094 30.8527 16.8079 28.1191V28.1094Z" fill="black"/>
<path d="M25.8047 39.7422L40.5839 58.8401" stroke="black" stroke-width="1.8797" stroke-miterlimit="3.55"/>
<path d="M63.0371 40.4621C63.2858 45.825 61.9997 50.2501 59.2041 53.6398C57.9479 55.1419 56.4516 56.4256 54.7761 57.4389C53.2866 58.3442 51.7004 59.0797 50.0471 59.6316C49.0014 59.9844 47.9349 60.2724 46.8538 60.4938C46.819 57.405 47.3125 51.6126 50.9364 47.0103C53.6613 43.5471 57.7255 41.3505 63.0322 40.4621M64.9869 38.043C41.6332 40.2899 44.8536 62.9701 44.8536 62.9701C44.8536 62.9701 67.7051 61.3454 64.9869 38.043Z" fill="black"/>
<path d="M55.8112 49.4141L40.5859 68.2662" stroke="black" stroke-width="1.8797" stroke-miterlimit="3.55"/>
<path d="M40.5882 9.11105C44.1512 13.1269 45.9317 17.3778 45.8852 21.772C45.8521 23.7289 45.4957 25.6668 44.8305 27.5074C44.2402 29.1474 43.468 30.7161 42.5284 32.1841C41.9374 33.1159 41.2888 34.0098 40.5863 34.8607C38.619 32.4793 35.3609 27.6632 35.2902 21.8059C35.2351 17.4001 37.0156 13.1375 40.5882 9.11105ZM40.5882 6C23.8311 22.4213 40.5882 38.0424 40.5882 38.0424C40.5882 38.0424 57.3434 22.4213 40.5882 6Z" fill="black"/>
<path d="M40.5859 20.8555V74.3336" stroke="black" stroke-width="1.8797" stroke-miterlimit="3.55"/>
</g>
</svg>
