<svg width="40" height="40" viewBox="0 0 40 40" fill="none" xmlns="http://www.w3.org/2000/svg">
<path d="M19.9994 10.1635C23.2034 10.1635 23.5829 10.1757 24.8482 10.2335C26.0181 10.2868 26.6535 10.4823 27.0763 10.6466C27.6364 10.8643 28.0361 11.1243 28.456 11.5442C28.8759 11.9641 29.1359 12.3638 29.3536 12.9239C29.5179 13.3468 29.7134 13.9821 29.7668 15.152C29.8245 16.4173 29.8367 16.7969 29.8367 20.0008C29.8367 23.2048 29.8245 23.5843 29.7668 24.8496C29.7134 26.0195 29.5179 26.6549 29.3536 27.0777C29.1359 27.6378 28.8759 28.0375 28.456 28.4574C28.0361 28.8773 27.6364 29.1373 27.0763 29.355C26.6535 29.5193 26.0181 29.7148 24.8482 29.7682C23.5831 29.8259 23.2036 29.8381 19.9994 29.8381C16.7952 29.8381 16.4158 29.8259 15.1506 29.7682C13.9807 29.7148 13.3453 29.5193 12.9225 29.355C12.3624 29.1373 11.9627 28.8773 11.5428 28.4574C11.1229 28.0375 10.8629 27.6378 10.6452 27.0777C10.4808 26.6549 10.2854 26.0195 10.232 24.8496C10.1743 23.5843 10.162 23.2048 10.162 20.0008C10.162 16.7969 10.1743 16.4173 10.232 15.152C10.2854 13.9821 10.4808 13.3468 10.6452 12.9239C10.8629 12.3638 11.1229 11.9641 11.5428 11.5442C11.9627 11.1243 12.3624 10.8643 12.9225 10.6466C13.3453 10.4823 13.9807 10.2868 15.1506 10.2335C16.4159 10.1757 16.7954 10.1635 19.9994 10.1635ZM19.9994 8.00146C16.7406 8.00146 16.3319 8.01528 15.0521 8.07367C13.7749 8.13193 12.9026 8.33479 12.1393 8.63139C11.3503 8.93804 10.6811 9.34834 10.014 10.0154C9.34688 10.6825 8.93658 11.3517 8.62998 12.1408C8.33333 12.904 8.13046 13.7763 8.07221 15.0535C8.01381 16.3334 8 16.742 8 20.0008C8 23.2596 8.01381 23.6683 8.07221 24.9481C8.13046 26.2253 8.33333 27.0976 8.62998 27.8608C8.93658 28.6499 9.34688 29.3191 10.014 29.9862C10.6811 30.6533 11.3503 31.0636 12.1393 31.3702C12.9026 31.6668 13.7749 31.8697 15.0521 31.928C16.3319 31.9864 16.7406 32.0002 19.9994 32.0002C23.2582 32.0002 23.6669 31.9864 24.9467 31.928C26.2239 31.8697 27.0962 31.6668 27.8594 31.3702C28.6485 31.0636 29.3177 30.6533 29.9848 29.9862C30.6519 29.3191 31.0622 28.6499 31.3689 27.8608C31.6655 27.0976 31.8683 26.2253 31.9266 24.9481C31.985 23.6683 31.9988 23.2596 31.9988 20.0008C31.9988 16.742 31.985 16.3334 31.9266 15.0535C31.8683 13.7763 31.6655 12.904 31.3689 12.1408C31.0622 11.3517 30.6519 10.6825 29.9848 10.0154C29.3177 9.34834 28.6485 8.93804 27.8594 8.63139C27.0962 8.33479 26.2239 8.13193 24.9467 8.07367C23.6669 8.01528 23.2582 8.00146 19.9994 8.00146Z" fill="white"/>
<path d="M20.0017 13.8506C16.5986 13.8506 13.8398 16.6093 13.8398 20.0124C13.8398 23.4155 16.5986 26.1742 20.0017 26.1742C23.4048 26.1742 26.1635 23.4155 26.1635 20.0124C26.1635 16.6093 23.4048 13.8506 20.0017 13.8506ZM20.0017 24.0122C17.7927 24.0122 16.0019 22.2214 16.0019 20.0124C16.0019 17.8034 17.7927 16.0126 20.0017 16.0126C22.2107 16.0126 24.0015 17.8034 24.0015 20.0124C24.0015 22.2214 22.2107 24.0122 20.0017 24.0122Z" fill="white"/>
<path d="M27.8525 13.6016C27.8525 14.3968 27.2078 15.0415 26.4126 15.0415C25.6174 15.0415 24.9727 14.3968 24.9727 13.6016C24.9727 12.8063 25.6174 12.1616 26.4126 12.1616C27.2078 12.1616 27.8525 12.8063 27.8525 13.6016Z" fill="white"/>
</svg>
