<svg width="40" height="40" viewBox="0 0 40 40" fill="none" xmlns="http://www.w3.org/2000/svg">
<path fill-rule="evenodd" clip-rule="evenodd" d="M8.19082 25.3556C8.24889 25.3556 8.29765 25.3088 8.30617 25.2436L8.61661 22.8167L8.30617 20.3354C8.29688 20.2694 8.24889 20.2241 8.19082 20.2241C8.13121 20.2241 8.08243 20.2709 8.07546 20.3361L7.80062 22.8167L8.07546 25.2428C8.0832 25.3088 8.13121 25.3556 8.19082 25.3556ZM7.16038 24.4331C7.2169 24.4331 7.26336 24.3886 7.27187 24.3257L7.51342 22.8167L7.27187 21.2817C7.26336 21.218 7.21767 21.1743 7.16038 21.1743C7.10232 21.1743 7.05588 21.2188 7.04814 21.2825L6.84375 22.8175L7.04814 24.3257C7.05588 24.3894 7.10232 24.4331 7.16038 24.4331ZM9.42485 19.8733C9.41633 19.795 9.35828 19.7382 9.2855 19.7382C9.21196 19.7382 9.15232 19.795 9.14536 19.8733C9.14536 19.8741 8.88524 22.8175 8.88524 22.8175L9.14536 25.6534C9.15232 25.7333 9.21196 25.7893 9.2855 25.7893C9.35828 25.7893 9.41633 25.7333 9.42485 25.6542L9.72135 22.8175L9.42485 19.8733ZM10.3895 25.9029C10.4746 25.9029 10.5451 25.8353 10.5528 25.7448L10.8315 22.819L10.5528 19.7927C10.5451 19.7029 10.4746 19.6339 10.3895 19.6339C10.3028 19.6339 10.2331 19.7022 10.2261 19.7935L9.9807 22.819L10.2261 25.7448C10.2331 25.8353 10.3028 25.9029 10.3895 25.9029ZM11.5019 25.9512C11.6018 25.9512 11.6823 25.8729 11.6901 25.7686L11.6893 25.7693L11.9533 22.819L11.6893 20.0115C11.6823 19.9086 11.6018 19.8296 11.5019 19.8296C11.4021 19.8296 11.3223 19.9086 11.3154 20.013L11.0839 22.819L11.3154 25.7693C11.3216 25.8729 11.4021 25.9512 11.5019 25.9512ZM13.0813 22.8198L12.8359 18.2539C12.8289 18.138 12.7368 18.0467 12.6253 18.0467C12.5122 18.0467 12.4193 18.138 12.4147 18.2539L12.1972 22.8198L12.4147 25.7701C12.4201 25.8852 12.513 25.9766 12.6253 25.9766C12.7375 25.9766 12.8297 25.886 12.8359 25.7693V25.7709L13.0813 22.8198ZM13.7548 25.9812C13.8802 25.9812 13.9839 25.8799 13.9901 25.7509V25.7532L14.2201 22.8206L13.9901 17.2101C13.9839 17.0811 13.8802 16.9798 13.7548 16.9798C13.6286 16.9798 13.5256 17.0811 13.5202 17.2101C13.5202 17.2108 13.3158 22.8206 13.3158 22.8206L13.5202 25.7517C13.5256 25.8798 13.6286 25.9812 13.7548 25.9812ZM14.8944 16.4886C14.7535 16.4886 14.6404 16.6007 14.6358 16.7434L14.4461 22.8206L14.6358 25.7225C14.6404 25.8637 14.7535 25.9758 14.8944 25.9758C15.0337 25.9758 15.1467 25.8637 15.1529 25.721V25.7233L15.3658 22.8206L15.1529 16.7434C15.1475 16.6007 15.0337 16.4886 14.8944 16.4886ZM16.0432 25.9812C16.1965 25.9812 16.3212 25.8599 16.3258 25.7033V25.7049L16.5232 22.8213L16.3258 16.5385C16.3212 16.3819 16.1965 16.2599 16.0432 16.2599C15.8892 16.2599 15.7653 16.3819 15.7614 16.5385L15.5849 22.8213L15.7614 25.7049C15.7645 25.8599 15.8892 25.9812 16.0432 25.9812ZM17.2014 25.9781C17.3678 25.9781 17.5033 25.8461 17.5072 25.6757V25.6788L17.6891 22.8206L17.5072 16.6981C17.5033 16.5293 17.3678 16.3965 17.2014 16.3965C17.0334 16.3965 16.8979 16.5293 16.8948 16.6989L16.7338 22.8206L16.8948 25.6772C16.8979 25.8461 17.0334 25.9781 17.2014 25.9781ZM18.8635 22.8221L18.6971 16.923C18.6932 16.7404 18.5485 16.5976 18.3673 16.5976C18.1861 16.5976 18.0406 16.7411 18.0367 16.923L17.8904 22.8221L18.0367 25.6604C18.0406 25.8407 18.1854 25.9842 18.3673 25.9842C18.5477 25.9842 18.6932 25.8407 18.6971 25.6588V25.6604L18.8635 22.8221ZM19.544 25.9896C19.7345 25.9896 19.894 25.833 19.8963 25.6404V25.6427L20.0457 22.8229L19.8963 15.8032C19.894 15.6106 19.7345 15.4532 19.544 15.4532C19.3513 15.4532 19.1926 15.6106 19.1902 15.8032L19.0563 22.8206C19.0563 22.8259 19.1902 25.6427 19.1902 25.6427C19.1926 25.833 19.3513 25.9896 19.544 25.9896ZM20.7146 14.7947C20.5079 14.7947 20.3391 14.962 20.3368 15.1677L20.182 22.8236L20.3368 25.602C20.3391 25.8054 20.5086 25.972 20.7146 25.972C20.919 25.972 21.0885 25.8046 21.0908 25.5997V25.602L21.2588 22.8236L21.0908 15.167C21.0885 14.9613 20.919 14.7947 20.7146 14.7947ZM21.7853 25.9919C21.7938 25.9927 31.2255 25.998 31.2867 25.998C33.1795 25.998 34.7147 24.4761 34.7147 22.5988C34.7147 20.7214 33.1803 19.2002 31.2867 19.2002C30.8175 19.2002 30.3693 19.2946 29.9613 19.4635C29.6888 16.4004 27.0976 13.998 23.9375 13.998C23.1641 13.998 22.4108 14.1493 21.745 14.4041C21.4857 14.5038 21.4175 14.6059 21.4152 14.8039V25.5905C21.4175 25.7985 21.5793 25.9712 21.7853 25.9919Z" fill="white"/>
</svg>
