<svg width="40" height="40" viewBox="0 0 40 40" fill="none" xmlns="http://www.w3.org/2000/svg">
<path d="M21.0714 5.37607C18.1176 5.1012 15.1487 5.70842 12.5399 7.12092C9.93124 8.53343 7.79997 10.6878 6.41565 13.3116C5.03134 15.9353 4.45615 18.9107 4.76283 21.8614C5.0695 24.812 6.24427 27.6055 8.13857 29.8885C10.0329 32.1715 12.5616 33.8416 15.405 34.6874C18.2485 35.5333 21.2789 35.5169 24.113 34.6405C26.9472 33.7641 29.4578 32.0669 31.3274 29.7636C33.197 27.4603 34.3416 24.6543 34.6164 21.7005C34.9807 17.7405 33.7591 13.7977 31.2198 10.7372C28.6804 7.67679 25.0307 5.74871 21.0714 5.37607ZM23.5857 26.72C23.4181 26.9759 23.1558 27.1549 22.8564 27.2175C22.5569 27.28 22.2449 27.2211 21.9888 27.0537C21.1392 26.4897 20.163 26.1451 19.1476 26.0506C18.1322 25.9561 17.1092 26.1147 16.17 26.5122C15.8889 26.6223 15.5759 26.6177 15.2981 26.4996C15.0203 26.3815 14.7999 26.1593 14.684 25.8805C14.5682 25.6018 14.5663 25.2887 14.6786 25.0085C14.7909 24.7283 15.0085 24.5033 15.2848 24.3817C16.5727 23.8467 17.9718 23.6346 19.3604 23.7638C20.749 23.893 22.0849 24.3597 23.2519 25.1231C23.5079 25.2907 23.6868 25.553 23.7494 25.8524C23.812 26.1519 23.7531 26.4639 23.5857 26.72ZM26.2575 22.9129C26.0892 23.1684 25.8264 23.3466 25.5267 23.4084C25.2271 23.4702 24.9152 23.4104 24.6596 23.2422C23.1371 22.2396 21.3915 21.6269 19.5764 21.458C17.7613 21.2891 15.9326 21.5692 14.2513 22.2736C13.9702 22.3857 13.6564 22.3829 13.3774 22.2658C13.0984 22.1487 12.8765 21.9267 12.7597 21.6476C12.6428 21.3685 12.6402 21.0547 12.7525 20.7737C12.8648 20.4927 13.083 20.2671 13.36 20.1455C15.3901 19.2941 17.5984 18.9555 19.7903 19.1594C21.9821 19.3634 24.0901 20.1037 25.9282 21.315C26.055 21.3985 26.164 21.5061 26.2491 21.6318C26.3342 21.7574 26.3937 21.8987 26.4241 22.0473C26.4545 22.196 26.4553 22.3493 26.4264 22.4982C26.3976 22.6472 26.3396 22.7891 26.2558 22.9156L26.2575 22.9129ZM28.9293 19.1058C28.8459 19.2324 28.7383 19.3413 28.6128 19.4263C28.4872 19.5112 28.3461 19.5706 28.1976 19.6011C28.0491 19.6315 27.8961 19.6324 27.7472 19.6036C27.5983 19.5749 27.4566 19.5171 27.3301 19.4335C25.1382 17.9832 22.6219 17.0969 20.0049 16.8534C17.3879 16.6099 14.7512 17.0167 12.3293 18.0377C12.0471 18.1562 11.7293 18.1578 11.4459 18.0421C11.1625 17.9263 10.9366 17.7027 10.8181 17.4205C10.6995 17.1382 10.6979 16.8204 10.8137 16.537C10.9294 16.2536 11.153 16.0278 11.4353 15.9092C14.207 14.7419 17.2241 14.2769 20.2187 14.5556C23.2133 14.8342 26.0928 15.8479 28.6016 17.5066C28.7284 17.5902 28.8374 17.698 28.9225 17.8238C29.0076 17.9497 29.0669 18.091 29.0972 18.2399C29.1275 18.3887 29.1281 18.5421 29.099 18.6911C29.0699 18.8402 29.0117 18.982 28.9276 19.1085L28.9293 19.1058Z" fill="white"/>
</svg>
