<svg width="40" height="40" viewBox="0 0 40 40" fill="none" xmlns="http://www.w3.org/2000/svg">
<path fill-rule="evenodd" clip-rule="evenodd" d="M31.2927 12.3854C31.6918 12.7845 31.9794 13.2812 32.1268 13.826C32.9757 17.243 32.7795 22.6397 32.1433 26.1886C31.9958 26.7335 31.7083 27.2302 31.3092 27.6293C30.9101 28.0284 30.4134 28.3159 29.8685 28.4634C27.874 29.0073 19.8466 29.0073 19.8466 29.0073C19.8466 29.0073 11.8191 29.0073 9.82459 28.4634C9.27977 28.3159 8.78308 28.0284 8.38398 27.6293C7.98488 27.2302 7.69729 26.7335 7.54987 26.1886C6.69602 22.7864 6.93009 17.3864 7.53338 13.8425C7.68081 13.2977 7.96839 12.801 8.3675 12.4019C8.76659 12.0028 9.26329 11.7152 9.80811 11.5678C11.8026 11.0238 19.8301 11.0073 19.8301 11.0073C19.8301 11.0073 27.8575 11.0073 29.8521 11.5513C30.3969 11.6987 30.8936 11.9863 31.2927 12.3854ZM23.9345 20.0073L17.2751 23.8645V16.1502L23.9345 20.0073Z" fill="white"/>
</svg>
