<svg width="40" height="40" viewBox="0 0 40 40" fill="none" xmlns="http://www.w3.org/2000/svg">
<circle cx="19.7705" cy="19.8848" r="19.7705" fill="black"/>
<path d="M19.7647 10.1574C22.932 10.1574 23.3072 10.1695 24.558 10.2265C25.7146 10.2793 26.3427 10.4725 26.7607 10.635C27.3144 10.8502 27.7095 11.1072 28.1246 11.5223C28.5397 11.9374 28.7968 12.3326 29.012 12.8863C29.1744 13.3042 29.3677 13.9323 29.4204 15.0889C29.4775 16.3397 29.4896 16.7149 29.4896 19.8822C29.4896 23.0496 29.4775 23.4248 29.4204 24.6756C29.3677 25.8322 29.1744 26.4603 29.012 26.8783C28.7968 27.432 28.5397 27.8271 28.1247 28.2422C27.7095 28.6573 27.3144 28.9144 26.7607 29.1296C26.3427 29.292 25.7146 29.4853 24.558 29.538C23.3074 29.5951 22.9322 29.6072 19.7647 29.6072C16.597 29.6072 16.2219 29.5951 14.9713 29.538C13.8147 29.4853 13.1866 29.292 12.7686 29.1296C12.2149 28.9144 11.8197 28.6573 11.4047 28.2422C10.9896 27.8271 10.7325 27.432 10.5173 26.8783C10.3548 26.4603 10.1616 25.8322 10.1089 24.6756C10.0518 23.4248 10.0397 23.0496 10.0397 19.8822C10.0397 16.7149 10.0518 16.3397 10.1089 15.0889C10.1616 13.9323 10.3548 13.3042 10.5173 12.8863C10.7325 12.3326 10.9895 11.9374 11.4047 11.5223C11.8197 11.1072 12.2149 10.8502 12.7686 10.635C13.1866 10.4725 13.8147 10.2793 14.9713 10.2265C16.2221 10.1695 16.5973 10.1574 19.7647 10.1574ZM19.7647 8.02002C16.543 8.02002 16.1391 8.03367 14.8738 8.0914C13.6112 8.14899 12.7489 8.34954 11.9944 8.64275C11.2143 8.9459 10.5528 9.35151 9.8933 10.011C9.23384 10.6705 8.82822 11.332 8.52512 12.112C8.23186 12.8666 8.03132 13.7289 7.97373 14.9915C7.916 16.2567 7.90234 16.6607 7.90234 19.8822C7.90234 23.1039 7.916 23.5078 7.97373 24.7731C8.03132 26.0357 8.23186 26.898 8.52512 27.6525C8.82822 28.4325 9.23384 29.0941 9.8933 29.7536C10.5528 30.413 11.2143 30.8186 11.9944 31.1217C12.7489 31.415 13.6112 31.6156 14.8738 31.6731C16.1391 31.7309 16.543 31.7445 19.7647 31.7445C22.9862 31.7445 23.3902 31.7309 24.6554 31.6731C25.918 31.6156 26.7804 31.415 27.5349 31.1217C28.3149 30.8186 28.9765 30.413 29.636 29.7536C30.2954 29.0941 30.701 28.4325 31.0042 27.6525C31.2974 26.898 31.498 26.0357 31.5555 24.7731C31.6133 23.5078 31.6269 23.1039 31.6269 19.8822C31.6269 16.6607 31.6133 16.2567 31.5555 14.9915C31.498 13.7289 31.2974 12.8666 31.0042 12.112C30.701 11.332 30.2954 10.6705 29.636 10.011C28.9765 9.35151 28.3149 8.9459 27.5349 8.64275C26.7804 8.34954 25.918 8.14899 24.6554 8.0914C23.3902 8.03367 22.9862 8.02002 19.7647 8.02002Z" fill="white"/>
<path d="M19.7672 13.8032C16.403 13.8032 13.6758 16.5304 13.6758 19.8946C13.6758 23.2589 16.403 25.9861 19.7672 25.9861C23.1315 25.9861 25.8587 23.2589 25.8587 19.8946C25.8587 16.5304 23.1315 13.8032 19.7672 13.8032ZM19.7672 23.8487C17.5834 23.8487 15.8131 22.0784 15.8131 19.8946C15.8131 17.7109 17.5834 15.9406 19.7672 15.9406C21.951 15.9406 23.7213 17.7109 23.7213 19.8946C23.7213 22.0784 21.951 23.8487 19.7672 23.8487Z" fill="white"/>
<path d="M27.5266 13.5563C27.5266 14.3424 26.8893 14.9798 26.1031 14.9798C25.317 14.9798 24.6797 14.3424 24.6797 13.5563C24.6797 12.7701 25.317 12.1328 26.1031 12.1328C26.8893 12.1328 27.5266 12.7701 27.5266 13.5563Z" fill="white"/>
</svg>
