<svg width="40" height="40" viewBox="0 0 40 40" fill="none" xmlns="http://www.w3.org/2000/svg">
<circle cx="19.79" cy="20.2295" r="19.7705" fill="black"/>
<path fill-rule="evenodd" clip-rule="evenodd" d="M9.0993 25.3276C9.15055 25.3276 9.1936 25.283 9.20111 25.2209L9.47516 22.9107L9.20111 20.5487C9.19291 20.4859 9.15055 20.4428 9.0993 20.4428C9.04667 20.4428 9.00361 20.4873 8.99746 20.5494L8.75484 22.9107L8.99746 25.2202C9.00429 25.283 9.04667 25.3276 9.0993 25.3276ZM8.18967 24.4494C8.23956 24.4494 8.28057 24.407 8.28809 24.3471L8.50132 22.9107L8.28809 21.4495C8.28057 21.3889 8.24024 21.3472 8.18967 21.3472C8.13841 21.3472 8.09741 21.3896 8.09058 21.4503L7.91016 22.9115L8.09058 24.3471C8.09741 24.4077 8.13841 24.4494 8.18967 24.4494ZM10.1886 20.1089C10.1811 20.0343 10.1299 19.9803 10.0656 19.9803C10.0007 19.9803 9.94807 20.0343 9.94191 20.1089C9.94191 20.1096 9.71229 22.9115 9.71229 22.9115L9.94191 25.611C9.94807 25.687 10.0007 25.7403 10.0656 25.7403C10.1299 25.7403 10.1811 25.687 10.1886 25.6118L10.4504 22.9115L10.1886 20.1089ZM11.0402 25.8485C11.1153 25.8485 11.1775 25.7842 11.1844 25.698L11.4304 22.9129L11.1844 20.0322C11.1775 19.9467 11.1153 19.8809 11.0402 19.8809C10.9636 19.8809 10.9021 19.9459 10.896 20.0329L10.6793 22.9129L10.896 25.698C10.9021 25.7842 10.9636 25.8485 11.0402 25.8485ZM12.0222 25.8945C12.1104 25.8945 12.1814 25.82 12.1883 25.7206L12.1876 25.7214L12.4206 22.9129L12.1876 20.2404C12.1814 20.1425 12.1104 20.0672 12.0222 20.0672C11.934 20.0672 11.8637 20.1425 11.8575 20.2418L11.6532 22.9129L11.8575 25.7214C11.863 25.82 11.934 25.8945 12.0222 25.8945ZM13.4164 22.9136L13.1997 18.5673C13.1936 18.457 13.1122 18.37 13.0138 18.37C12.9141 18.37 12.8321 18.457 12.828 18.5673L12.6359 22.9136L12.828 25.7221C12.8327 25.8317 12.9147 25.9186 13.0138 25.9186C13.1129 25.9186 13.1943 25.8324 13.1997 25.7214V25.7228L13.4164 22.9136ZM14.0109 25.923C14.1216 25.923 14.2132 25.8266 14.2187 25.7038V25.706L14.4217 22.9144L14.2187 17.5737C14.2132 17.4509 14.1216 17.3545 14.0109 17.3545C13.8995 17.3545 13.8086 17.4509 13.8038 17.5737C13.8038 17.5744 13.6234 22.9144 13.6234 22.9144L13.8038 25.7045C13.8086 25.8266 13.8995 25.923 14.0109 25.923ZM15.0169 16.8869C14.8925 16.8869 14.7927 16.9936 14.7886 17.1295L14.6212 22.9144L14.7886 25.6768C14.7927 25.8112 14.8925 25.9179 15.0169 25.9179C15.1399 25.9179 15.2397 25.8112 15.2451 25.6753V25.6775L15.4331 22.9144L15.2451 17.1295C15.2404 16.9936 15.1399 16.8869 15.0169 16.8869ZM16.0311 25.923C16.1664 25.923 16.2764 25.8076 16.2805 25.6585V25.66L16.4548 22.9151L16.2805 16.9344C16.2764 16.7854 16.1664 16.6692 16.0311 16.6692C15.8951 16.6692 15.7857 16.7854 15.7823 16.9344L15.6265 22.9151L15.7823 25.66C15.785 25.8076 15.8951 25.923 16.0311 25.923ZM17.0534 25.9201C17.2004 25.9201 17.32 25.7944 17.3234 25.6322V25.6351L17.484 22.9144L17.3234 17.0864C17.32 16.9256 17.2004 16.7992 17.0534 16.7992C16.9051 16.7992 16.7855 16.9256 16.7828 17.0871L16.6407 22.9144L16.7828 25.6337C16.7855 25.7944 16.9051 25.9201 17.0534 25.9201ZM18.5207 22.9158L18.3738 17.3004C18.3704 17.1266 18.2426 16.9907 18.0827 16.9907C17.9227 16.9907 17.7943 17.1273 17.7908 17.3004L17.6617 22.9158L17.7908 25.6176C17.7943 25.7893 17.9221 25.9259 18.0827 25.9259C18.2419 25.9259 18.3704 25.7893 18.3738 25.6161V25.6176L18.5207 22.9158ZM19.1214 25.931C19.2895 25.931 19.4303 25.782 19.4324 25.5986V25.6008L19.5643 22.9166L19.4324 16.2345C19.4303 16.0511 19.2895 15.9013 19.1214 15.9013C18.9513 15.9013 18.8112 16.0511 18.8091 16.2345L18.6909 22.9144C18.6909 22.9195 18.8091 25.6008 18.8091 25.6008C18.8112 25.782 18.9513 25.931 19.1214 25.931ZM20.1547 15.2745C19.9723 15.2745 19.8233 15.4338 19.8212 15.6296L19.6845 22.9173L19.8212 25.5621C19.8233 25.7557 19.9729 25.9142 20.1547 25.9142C20.3351 25.9142 20.4848 25.755 20.4869 25.5599V25.5621L20.6352 22.9173L20.4869 15.6288C20.4848 15.433 20.3351 15.2745 20.1547 15.2745ZM21.0999 25.9332C21.1074 25.934 29.4333 25.9391 29.4873 25.9391C31.1582 25.9391 32.5134 24.4903 32.5134 22.7032C32.5134 20.9162 31.1589 19.4681 29.4873 19.4681C29.0732 19.4681 28.6775 19.558 28.3173 19.7187C28.0768 16.8029 25.7894 14.5161 22.9998 14.5161C22.317 14.5161 21.6521 14.66 21.0644 14.9026C20.8354 14.9976 20.7753 15.0948 20.7732 15.2832V25.5511C20.7753 25.7491 20.9181 25.9135 21.0999 25.9332Z" fill="white"/>
</svg>
