<svg width="40" height="40" viewBox="0 0 40 40" fill="none" xmlns="http://www.w3.org/2000/svg">
<circle cx="19.7812" cy="20.1146" r="18.1679" fill="white"/>
<path d="M22.0115 1.18597C18.181 0.829529 14.331 1.61695 10.9481 3.44865C7.56516 5.28034 4.80139 8.07405 3.00625 11.4765C1.2111 14.8789 0.465217 18.7373 0.862906 22.5636C1.2606 26.39 2.784 30.0125 5.24047 32.973C7.69695 35.9336 10.9762 38.0992 14.6634 39.1961C18.3507 40.293 22.2804 40.2718 25.9557 39.1353C29.6309 37.9987 32.8866 35.7979 35.3111 32.811C37.7355 29.8242 39.2198 26.1855 39.5762 22.3551C40.0486 17.2198 38.4645 12.1069 35.1716 8.13817C31.8786 4.16948 27.1457 1.6692 22.0115 1.18597ZM25.2719 28.8641C25.0546 29.1961 24.7144 29.4281 24.3261 29.5093C23.9378 29.5904 23.5331 29.514 23.2011 29.2969C22.0993 28.5655 20.8334 28.1186 19.5167 27.9961C18.1999 27.8735 16.8733 28.0792 15.6555 28.5948C15.2909 28.7374 14.885 28.7316 14.5248 28.5784C14.1645 28.4253 13.8787 28.137 13.7285 27.7756C13.5783 27.4141 13.5757 27.0081 13.7214 26.6448C13.867 26.2814 14.1493 25.9896 14.5076 25.832C16.1776 25.1382 17.9919 24.8631 19.7926 25.0307C21.5933 25.1982 23.3257 25.8034 24.8391 26.7934C25.171 27.0106 25.403 27.3508 25.4842 27.7392C25.5654 28.1275 25.489 28.5321 25.2719 28.8641ZM28.7366 23.9272C28.5184 24.2586 28.1775 24.4897 27.789 24.5698C27.4004 24.6499 26.9959 24.5723 26.6645 24.3542C24.6902 23.0542 22.4265 22.2596 20.0727 22.0406C17.719 21.8216 15.3475 22.1848 13.1672 23.0983C12.8028 23.2436 12.3958 23.24 12.034 23.0881C11.6722 22.9363 11.3845 22.6483 11.233 22.2864C11.0814 21.9245 11.0781 21.5175 11.2237 21.1532C11.3693 20.7888 11.6523 20.4963 12.0115 20.3385C14.644 19.2345 17.5078 18.7953 20.3501 19.0598C23.1924 19.3243 25.926 20.2843 28.3096 21.8551C28.4739 21.9634 28.6154 22.1029 28.7257 22.2659C28.8361 22.4289 28.9132 22.612 28.9526 22.8048C28.9921 22.9976 28.9931 23.1963 28.9557 23.3895C28.9182 23.5827 28.843 23.7667 28.7344 23.9308L28.7366 23.9272ZM32.2013 18.9903C32.0931 19.1544 31.9536 19.2957 31.7908 19.4059C31.628 19.5161 31.4451 19.5931 31.2525 19.6326C31.0599 19.672 30.8614 19.6732 30.6684 19.6359C30.4754 19.5986 30.2916 19.5236 30.1275 19.4153C27.2851 17.5346 24.022 16.3853 20.6284 16.0695C17.2347 15.7537 13.8156 16.2812 10.675 17.6052C10.3089 17.7589 9.89684 17.761 9.52932 17.6109C9.16179 17.4608 8.86894 17.1708 8.7152 16.8048C8.56145 16.4388 8.55939 16.0267 8.70948 15.6592C8.85958 15.2917 9.14952 14.9988 9.51553 14.8451C13.1099 13.3313 17.0223 12.7283 20.9056 13.0897C24.789 13.4511 28.523 14.7656 31.7763 16.9165C31.9408 17.0249 32.0822 17.1647 32.1925 17.3279C32.3028 17.491 32.3798 17.6744 32.4191 17.8674C32.4584 18.0604 32.4592 18.2593 32.4214 18.4526C32.3837 18.6459 32.3081 18.8298 32.1991 18.9939L32.2013 18.9903Z" fill="black"/>
</svg>
