<svg width="40" height="40" viewBox="0 0 40 40" fill="none" xmlns="http://www.w3.org/2000/svg">
<circle cx="19.7705" cy="19.9907" r="19.7705" fill="black"/>
<path fill-rule="evenodd" clip-rule="evenodd" d="M30.9357 12.4707C31.3302 12.8652 31.6145 13.3562 31.7602 13.8947C32.5994 17.2726 32.4055 22.6073 31.7765 26.1155C31.6308 26.6541 31.3465 27.1451 30.952 27.5396C30.5575 27.9341 30.0665 28.2184 29.5279 28.3641C27.5563 28.9018 19.6209 28.9018 19.6209 28.9018C19.6209 28.9018 11.6856 28.9018 9.71396 28.3641C9.1754 28.2184 8.6844 27.9341 8.28988 27.5396C7.89536 27.1451 7.61108 26.6541 7.46534 26.1155C6.62129 22.7524 6.85268 17.4143 7.44905 13.911C7.59478 13.3725 7.87907 12.8815 8.27359 12.4869C8.66811 12.0924 9.1591 11.8081 9.69767 11.6624C11.6693 11.1247 19.6046 11.1084 19.6046 11.1084C19.6046 11.1084 27.54 11.1084 29.5116 11.6461C30.0502 11.7918 30.5412 12.0761 30.9357 12.4707ZM23.6619 20.0051L17.079 23.818V16.1922L23.6619 20.0051Z" fill="white"/>
</svg>
