<svg width="39" height="58" viewBox="0 0 39 58" fill="none" xmlns="http://www.w3.org/2000/svg">
<path d="M28.3904 4.30176H5.87724C5.74413 4.30176 5.61647 4.35519 5.5223 4.4503C5.42813 4.54542 5.37515 4.67445 5.375 4.80903V42.327C5.37514 42.4616 5.42811 42.5907 5.52227 42.6859C5.61642 42.7811 5.74408 42.8346 5.87724 42.8348H28.3904C28.5235 42.8346 28.6511 42.7811 28.7451 42.6859C28.8392 42.5906 28.8921 42.4615 28.8921 42.327V29.6816C28.8878 29.5499 28.833 29.425 28.7393 29.3334C28.6457 29.2418 28.5204 29.1905 28.3901 29.1905C28.2598 29.1905 28.1345 29.2418 28.0409 29.3334C27.9472 29.425 27.8924 29.5499 27.8881 29.6816V41.8208H6.37893V5.31465H27.8881V12.3971C27.8924 12.5288 27.9472 12.6537 28.0409 12.7453C28.1345 12.837 28.2598 12.8882 28.3901 12.8882C28.5204 12.8882 28.6457 12.837 28.7393 12.7453C28.833 12.6537 28.8878 12.5288 28.8921 12.3971V4.81014C28.8921 4.74345 28.8792 4.6774 28.854 4.61576C28.8289 4.55412 28.7919 4.4981 28.7453 4.45089C28.6988 4.40368 28.6434 4.36621 28.5825 4.34063C28.5216 4.31504 28.4563 4.30183 28.3904 4.30176Z" fill="black"/>
<path d="M7.86542 45.4923H5.79231C5.52273 45.4923 5.375 45.6461 5.375 45.9246V52.3763C5.375 52.6559 5.52327 52.8086 5.79231 52.8086H7.86542C8.1018 52.8089 8.33591 52.7608 8.55435 52.6672C8.7728 52.5735 8.9713 52.4361 9.13847 52.2627C9.30564 52.0894 9.4382 51.8836 9.52858 51.6571C9.61896 51.4305 9.66537 51.1878 9.66516 50.9426V47.3588C9.6679 47.1129 9.62323 46.8689 9.53375 46.6412C9.44428 46.4135 9.31181 46.2066 9.14414 46.0327C8.97647 45.8588 8.77698 45.7214 8.55738 45.6286C8.33779 45.5358 8.10252 45.4895 7.86542 45.4923ZM8.83053 50.9426C8.83306 51.0744 8.80927 51.2052 8.76064 51.327C8.71202 51.4487 8.63962 51.5587 8.548 51.65C8.45942 51.7444 8.3532 51.8191 8.23583 51.8694C8.11846 51.9198 7.99243 51.9449 7.86542 51.943H6.2091V46.3579H7.86542C7.99243 46.356 8.11846 46.3811 8.23583 46.4314C8.3532 46.4818 8.45942 46.5565 8.548 46.6509C8.63961 46.7423 8.712 46.8524 8.76062 46.9743C8.80924 47.0961 8.83304 47.227 8.83053 47.3588V50.9426Z" fill="black"/>
<path d="M16.8951 45.4922C16.6132 45.4923 16.3341 45.5499 16.0737 45.6619C15.8133 45.7739 15.5767 45.9379 15.3775 46.1447C15.1783 46.3515 15.0203 46.597 14.9127 46.8671C14.805 47.1372 14.7497 47.4267 14.75 47.7189V50.5847C14.75 50.8767 14.8055 51.1659 14.9133 51.4357C15.0211 51.7055 15.1791 51.9507 15.3783 52.1572C15.5775 52.3637 15.814 52.5275 16.0742 52.6393C16.3345 52.7511 16.6134 52.8086 16.8951 52.8086C17.1768 52.8086 17.4558 52.7511 17.716 52.6393C17.9763 52.5275 18.2128 52.3637 18.412 52.1572C18.6112 51.9507 18.7692 51.7055 18.877 51.4357C18.9848 51.1659 19.0403 50.8767 19.0403 50.5847V47.7189C19.0413 47.4265 18.9866 47.1368 18.8792 46.8665C18.7717 46.5961 18.6138 46.3505 18.4144 46.1437C18.215 45.9369 17.9781 45.7731 17.7173 45.6617C17.4566 45.5502 17.1772 45.4934 16.8951 45.4944V45.4922ZM18.2055 50.5824C18.2102 50.7616 18.1791 50.9399 18.1142 51.1061C18.0492 51.2722 17.9518 51.4227 17.828 51.5479C17.5792 51.8002 17.2449 51.9415 16.8967 51.9415C16.5486 51.9415 16.2143 51.8002 15.9655 51.5479C15.8417 51.4227 15.7443 51.2722 15.6793 51.1061C15.6144 50.9399 15.5833 50.7616 15.588 50.5824V47.7189C15.5833 47.5397 15.6144 47.3614 15.6793 47.1952C15.7443 47.0291 15.8417 46.8787 15.9655 46.7534C16.2143 46.5011 16.5486 46.3598 16.8967 46.3598C17.2449 46.3598 17.5792 46.5011 17.828 46.7534C17.9517 46.8787 18.0492 47.0291 18.1141 47.1953C18.1791 47.3614 18.2102 47.5397 18.2055 47.7189V50.5824Z" fill="black"/>
<path d="M28.0413 52.3764C28.0413 52.6559 28.1927 52.8086 28.4673 52.8086C28.742 52.8086 28.8934 52.6554 28.8934 52.3764V45.9248C28.8934 45.6452 28.742 45.4926 28.4673 45.4926C28.3961 45.4895 28.3253 45.5055 28.262 45.5389C28.1987 45.5724 28.1452 45.6222 28.1068 45.6832L26.351 48.3672L24.605 45.7067C24.5668 45.6415 24.5124 45.5876 24.4474 45.5504C24.3823 45.5131 24.3088 45.4938 24.2341 45.4942C23.9589 45.4942 23.8086 45.648 23.8086 45.9265V52.3764C23.8086 52.6559 23.9594 52.8086 24.2341 52.8086C24.5087 52.8086 24.6601 52.6554 24.6601 52.3764V47.3495L25.9585 49.3334C26.0686 49.5012 26.2007 49.5834 26.351 49.5834C26.5013 49.5834 26.6262 49.4989 26.7363 49.3334L28.0402 47.3484L28.0413 52.3764Z" fill="black"/>
<path d="M28.4184 15.1948C28.2919 15.195 28.1707 15.2481 28.0813 15.3426C27.9918 15.4371 27.9415 15.5652 27.9414 15.6988V26.5763C27.9455 26.707 27.9975 26.8309 28.0865 26.9219C28.1754 27.0128 28.2943 27.0636 28.4181 27.0636C28.5419 27.0636 28.6608 27.0128 28.7497 26.9219C28.8387 26.8309 28.8907 26.707 28.8948 26.5763V15.6988C28.8948 15.5653 28.8446 15.4371 28.7553 15.3426C28.6659 15.2481 28.5448 15.195 28.4184 15.1948Z" fill="black"/>
<path d="M32.2182 19.5852H30.5323C30.4642 19.5834 30.3964 19.5926 30.3329 19.6122C30.2694 19.6318 30.2114 19.6614 30.1625 19.6993C30.1136 19.7372 30.0747 19.7826 30.0481 19.8328C30.0215 19.883 30.0078 19.9369 30.0078 19.9914C30.0078 20.0459 30.0215 20.0999 30.0481 20.1501C30.0747 20.2003 30.1136 20.2456 30.1625 20.2835C30.2114 20.3215 30.2694 20.3511 30.3329 20.3707C30.3964 20.3903 30.4642 20.3995 30.5323 20.3977H32.2182C32.3498 20.3942 32.4747 20.3499 32.5663 20.2741C32.6579 20.1983 32.7091 20.0969 32.7091 19.9914C32.7091 19.8859 32.6579 19.7846 32.5663 19.7088C32.4747 19.633 32.3498 19.5887 32.2182 19.5852Z" fill="black"/>
<path d="M25.0987 19.585C24.9653 19.5884 24.839 19.6328 24.7462 19.7086C24.6534 19.7845 24.6016 19.8859 24.6016 19.9914C24.6016 20.097 24.6534 20.1984 24.7462 20.2742C24.839 20.3501 24.9653 20.3944 25.0987 20.3979H26.8057C26.9391 20.3944 27.0655 20.3501 27.1582 20.2742C27.251 20.1984 27.3028 20.097 27.3028 19.9914C27.3028 19.8859 27.251 19.7845 27.1582 19.7086C27.0655 19.6328 26.9391 19.5884 26.8057 19.585H25.0987Z" fill="black"/>
</svg>
