<svg width="64" height="95" viewBox="0 0 64 95" fill="none" xmlns="http://www.w3.org/2000/svg">
<path d="M47.233 7.64258H10.2355C10.0168 7.64258 9.80699 7.73038 9.65223 7.88669C9.49747 8.043 9.41039 8.25504 9.41016 8.47622V70.1321C9.41039 70.3534 9.49744 70.5655 9.65217 70.722C9.80691 70.8784 10.0167 70.9664 10.2355 70.9667H47.233C47.4517 70.9664 47.6614 70.8784 47.816 70.7219C47.9706 70.5654 48.0574 70.3533 48.0574 70.1321V49.3511C48.0504 49.1347 47.9604 48.9295 47.8064 48.7789C47.6525 48.6283 47.4467 48.5441 47.2325 48.5441C47.0183 48.5441 46.8125 48.6283 46.6586 48.7789C46.5047 48.9295 46.4147 49.1347 46.4076 49.3511V69.3003H11.06V9.30713H46.4076V20.9463C46.4147 21.1627 46.5047 21.3679 46.6586 21.5185C46.8125 21.6691 47.0183 21.7533 47.2325 21.7533C47.4467 21.7533 47.6525 21.6691 47.8064 21.5185C47.9604 21.3679 48.0504 21.1627 48.0574 20.9463V8.47804C48.0576 8.36845 48.0363 8.2599 47.995 8.1586C47.9536 8.0573 47.8929 7.96524 47.8163 7.88766C47.7398 7.81008 47.6488 7.7485 47.5488 7.70645C47.4487 7.6644 47.3414 7.6427 47.233 7.64258Z" fill="#171C22"/>
<path d="M13.5028 75.3342H10.096C9.65293 75.3342 9.41016 75.5869 9.41016 76.0445V86.6472C9.41016 87.1067 9.65382 87.3575 10.096 87.3575H13.5028C13.8913 87.358 14.276 87.279 14.635 87.1251C14.994 86.9712 15.3202 86.7454 15.5949 86.4605C15.8697 86.1757 16.0875 85.8375 16.236 85.4652C16.3846 85.0929 16.4608 84.6939 16.4605 84.2911V78.4016C16.465 77.9975 16.3916 77.5965 16.2445 77.2222C16.0975 76.848 15.8798 76.508 15.6043 76.2222C15.3287 75.9364 15.0009 75.7106 14.64 75.5581C14.2791 75.4057 13.8925 75.3295 13.5028 75.3342ZM15.0889 84.2911C15.093 84.5076 15.0539 84.7226 14.974 84.9227C14.8941 85.1227 14.7751 85.3035 14.6246 85.4535C14.479 85.6087 14.3044 85.7314 14.1116 85.8142C13.9187 85.897 13.7116 85.9381 13.5028 85.935H10.7809V76.7567H13.5028C13.7116 76.7536 13.9187 76.7947 14.1116 76.8775C14.3044 76.9603 14.479 77.0831 14.6246 77.2382C14.7751 77.3885 14.8941 77.5694 14.974 77.7696C15.0539 77.9698 15.093 78.185 15.0889 78.4016V84.2911Z" fill="#171C22"/>
<path d="M28.3417 75.334C27.8784 75.3341 27.4197 75.4289 26.9917 75.6129C26.5638 75.7969 26.175 76.0665 25.8476 76.4063C25.5203 76.7462 25.2607 77.1496 25.0837 77.5935C24.9068 78.0373 24.8159 78.513 24.8164 78.9933V83.7028C24.8164 84.1827 24.9076 84.658 25.0848 85.1014C25.2619 85.5448 25.5216 85.9477 25.8489 86.2871C26.1763 86.6265 26.5649 86.8957 26.9926 87.0793C27.4203 87.263 27.8787 87.3575 28.3417 87.3575C28.8046 87.3575 29.263 87.263 29.6907 87.0793C30.1184 86.8957 30.507 86.6265 30.8344 86.2871C31.1617 85.9477 31.4214 85.5448 31.5986 85.1014C31.7757 84.658 31.8669 84.1827 31.8669 83.7028V78.9933C31.8687 78.5128 31.7787 78.0367 31.6021 77.5924C31.4256 77.1481 31.166 76.7445 30.8384 76.4046C30.5107 76.0648 30.1213 75.7956 29.6928 75.6125C29.2643 75.4294 28.8051 75.336 28.3417 75.3377V75.334ZM30.4951 83.6991C30.5028 83.9936 30.4517 84.2866 30.345 84.5597C30.2382 84.8328 30.0781 85.08 29.8748 85.2858C29.4658 85.7005 28.9164 85.9327 28.3443 85.9327C27.7722 85.9327 27.2229 85.7005 26.8139 85.2858C26.6105 85.08 26.4504 84.8328 26.3437 84.5597C26.2369 84.2866 26.1858 83.9936 26.1935 83.6991V78.9933C26.1858 78.6988 26.2369 78.4058 26.3437 78.1327C26.4504 77.8597 26.6105 77.6125 26.8139 77.4067C27.2229 76.992 27.7722 76.7598 28.3443 76.7598C28.9164 76.7598 29.4658 76.992 29.8748 77.4067C30.0781 77.6125 30.2381 77.8597 30.3449 78.1328C30.4516 78.4058 30.5028 78.6988 30.4951 78.9933V83.6991Z" fill="#171C22"/>
<path d="M46.6513 86.6472C46.6513 87.1067 46.9 87.3575 47.3514 87.3575C47.8027 87.3575 48.0515 87.1058 48.0515 86.6472V76.0449C48.0515 75.5855 47.8027 75.3346 47.3514 75.3346C47.2343 75.3295 47.1179 75.3558 47.0139 75.4108C46.9099 75.4658 46.822 75.5476 46.7589 75.6479L43.8734 80.0587L41.0042 75.6865C40.9413 75.5794 40.852 75.4909 40.7451 75.4296C40.6381 75.3684 40.5173 75.3366 40.3945 75.3374C39.9423 75.3374 39.6953 75.5901 39.6953 76.0477V86.6472C39.6953 87.1067 39.9432 87.3575 40.3945 87.3575C40.8459 87.3575 41.0946 87.1058 41.0946 86.6472V78.3863L43.2285 81.6466C43.4094 81.9222 43.6265 82.0573 43.8734 82.0573C44.1203 82.0573 44.3257 81.9185 44.5066 81.6466L46.6494 78.3844L46.6513 86.6472Z" fill="#171C22"/>
<path d="M47.2721 25.5449C47.0643 25.5452 46.8651 25.6325 46.7181 25.7878C46.5712 25.9431 46.4885 26.1536 46.4883 26.3732V44.2489C46.495 44.4637 46.5805 44.6674 46.7267 44.8168C46.8728 44.9663 47.0683 45.0498 47.2717 45.0498C47.4751 45.0498 47.6705 44.9663 47.8167 44.8168C47.9629 44.6674 48.0483 44.4637 48.0551 44.2489V26.3732C48.0551 26.1537 47.9726 25.9431 47.8258 25.7878C47.679 25.6325 47.4798 25.5452 47.2721 25.5449Z" fill="#171C22"/>
<path d="M53.523 32.7592H50.7525C50.6407 32.7562 50.5293 32.7713 50.4249 32.8035C50.3205 32.8357 50.2252 32.8844 50.1448 32.9467C50.0644 33.009 50.0005 33.0836 49.9568 33.1661C49.9131 33.2485 49.8906 33.3372 49.8906 33.4268C49.8906 33.5163 49.9131 33.605 49.9568 33.6875C50.0005 33.7699 50.0644 33.8445 50.1448 33.9068C50.2252 33.9691 50.3205 34.0178 50.4249 34.05C50.5293 34.0823 50.6407 34.0973 50.7525 34.0944H53.523C53.7394 34.0887 53.9446 34.0158 54.0951 33.8912C54.2457 33.7667 54.3298 33.6001 54.3298 33.4268C54.3298 33.2534 54.2457 33.0869 54.0951 32.9623C53.9446 32.8377 53.7394 32.7649 53.523 32.7592Z" fill="#171C22"/>
<path d="M41.8247 32.7588C41.6056 32.7645 41.3979 32.8374 41.2455 32.962C41.0931 33.0867 41.0078 33.2533 41.0078 33.4268C41.0078 33.6002 41.0931 33.7668 41.2455 33.8915C41.3979 34.0161 41.6056 34.089 41.8247 34.0947H44.6301C44.8492 34.089 45.0569 34.0161 45.2093 33.8915C45.3618 33.7668 45.447 33.6002 45.447 33.4268C45.447 33.2533 45.3618 33.0867 45.2093 32.962C45.0569 32.8374 44.8492 32.7645 44.6301 32.7588H41.8247Z" fill="#171C22"/>
</svg>
