<svg width="75" height="74" viewBox="0 0 75 74" fill="none" xmlns="http://www.w3.org/2000/svg">
<path d="M55.2657 31.8227C55.2749 34.6973 54.5616 37.5326 53.1868 40.0862C51.812 42.6399 49.8166 44.8359 47.3711 46.4866L47.3631 54.5727C47.3567 55.9745 46.7761 57.3182 45.7478 58.3116C44.7195 59.305 43.3266 59.8677 41.872 59.8773L31.8808 59.9008C30.4285 59.8939 29.0387 59.3354 28.0129 58.3467C26.9871 57.3579 26.4078 56.0186 26.4008 54.619L26.3978 46.6396C24.2311 45.2306 22.3998 43.3945 21.0245 41.2522C19.6493 39.11 18.7613 36.7103 18.4193 34.2113C18.0772 31.7124 18.2887 29.1709 19.0399 26.7544C19.7912 24.3379 21.065 22.1013 22.7775 20.192C24.4899 18.2827 26.6022 16.744 28.9749 15.6774C31.3477 14.6108 33.9271 14.0406 36.5432 14.0042C39.1592 13.9678 41.7525 14.4662 44.152 15.4664C46.5515 16.4666 48.7029 17.9459 50.4642 19.8069" stroke="black" stroke-width="1.88" stroke-miterlimit="10"/>
<path d="M30.0796 60.1889L30.0991 63.8067L43.0289 63.8495L43.0095 60.2317" stroke="black" stroke-width="1.88" stroke-miterlimit="10"/>
<path d="M32.2033 64.1341L32.2045 67.9001L41.1098 67.9011L41.1089 64.1498" stroke="black" stroke-width="1.88" stroke-miterlimit="10"/>
<path d="M63.4165 24C64.7121 28.4854 64.8482 33.2349 63.8118 37.7895C62.7754 42.3441 60.6014 46.5498 57.5 50" stroke="black" stroke-width="1.88" stroke-miterlimit="10"/>
<path d="M17.7306 53C14.8693 50.3483 12.5743 47.1304 10.9871 43.5449C9.39999 39.9593 8.55441 36.0821 8.50254 32.1524C8.45067 28.2227 9.19363 24.324 10.6856 20.6966C12.1775 17.0693 14.3868 13.7903 17.1771 11.062C19.9674 8.33363 23.2796 6.21381 26.9093 4.83329C30.5391 3.45277 34.4093 2.84083 38.2813 3.03521C42.1534 3.22959 45.945 4.22618 49.4224 5.96349C52.8999 7.7008 55.9892 10.142 58.5 13.1364C59.6667 14.7576 62.3 19.2 63.5 24" stroke="black" stroke-width="1.88" stroke-miterlimit="10"/>
<path d="M37.2428 56.0813L37.0114 44.0004" stroke="black" stroke-width="1.88" stroke-miterlimit="10"/>
<path d="M32.6484 40.1758L36.9478 43.7639L41.301 40.0287" stroke="black" stroke-width="1.88" stroke-miterlimit="10"/>
</svg>
